<svg class="maincat_icon" height="496pt" viewBox="0 -22 496 495" width="496pt" xmlns="http://www.w3.org/2000/svg"><path d="m488 192.5v136c0 17.671875-14.328125 32-32 32v82.351562l-80-82.351562h-152c-17.671875 0-32-14.328125-32-32v-136c0-17.671875 14.328125-32 32-32h232c17.671875 0 32 14.328125 32 32zm0 0" fill="#e2dee8"/><g fill="#3c2666"><path d="m456 152.5h-144v-112c-.027344-22.082031-17.917969-39.972656-40-40h-232c-22.082031.027344-39.9726562 17.917969-40 40v136c.0195312 19 13.386719 35.375 32 39.199219v75.121093c-.007812 3.261719 1.960938 6.199219 4.980469 7.429688s6.484375.507812 8.753906-1.828125l77.648437-79.921875h60.617188v112c.027344 22.082031 17.917969 39.972656 40 40h148.617188l77.648437 79.929688c2.269531 2.335937 5.734375 3.0625 8.753906 1.828124 3.019531-1.230468 4.988281-4.167968 4.980469-7.429687v-75.128906c18.613281-3.824219 31.980469-20.199219 32-39.199219v-136c-.027344-22.082031-17.917969-39.972656-40-40zm-336 48c-2.15625-.007812-4.226562.859375-5.734375 2.398438l-66.265625 68.210937v-62.609375c0-4.417969-3.582031-8-8-8-13.253906 0-24-10.746094-24-24v-136c0-13.253906 10.746094-24 24-24h232c13.253906 0 24 10.746094 24 24v112h-72c-9.777344.035156-19.199219 3.679688-26.457031 10.230469l-46.230469-46.230469 28-28h20.6875c4.417969 0 8-3.582031 8-8s-3.582031-8-8-8h-48v-16c0-4.417969-3.582031-8-8-8s-8 3.582031-8 8v16h-40c-4.417969 0-8 3.582031-8 8s3.582031 8 8 8h60.6875l-78.34375 78.34375c-2.078125 2.007812-2.914062 4.984375-2.179688 7.78125.730469 2.796875 2.914063 4.980469 5.710938 5.710938 2.796875.734374 5.773438-.101563 7.78125-2.179688l50.34375-50.34375 46.34375 46.34375c.515625.449219 1.089844.832031 1.703125 1.136719-2.632813 5.355469-4.015625 11.238281-4.046875 17.207031v8zm360 128c0 13.253906-10.746094 24-24 24-4.417969 0-8 3.582031-8 8v62.632812l-66.265625-68.234374c-1.507813-1.539063-3.578125-2.40625-5.734375-2.398438h-152c-13.253906 0-24-10.746094-24-24v-136c0-13.253906 10.746094-24 24-24h232c13.253906 0 24 10.746094 24 24zm0 0"/><path d="m373.921875 277.765625c2.046875-2.21875 2.636719-5.417969 1.515625-8.222656-1.121094-2.800781-3.753906-4.710938-6.765625-4.90625l-17.238281-43.105469c-1.167969-2.929688-3.949219-4.898438-7.097656-5.03125-3.175782-.242188-6.167969 1.519531-7.496094 4.414062l-40 80c-1.976563 3.957032-.371094 8.761719 3.585937 10.738282 3.953125 1.976562 8.757813.371094 10.734375-3.585938l13.785156-27.566406h32.796876l10.785156 26.96875c1.21875 3.054688 4.183594 5.050781 7.472656 5.03125 1.015625.003906 2.023438-.1875 2.96875-.566406 4.105469-1.640625 6.105469-6.296875 4.464844-10.402344zm-40.976563-13.265625 10.238282-20.488281 8.199218 20.488281zm0 0"/><path d="m464 192.5h-56c-4.417969 0-8 3.582031-8 8s3.582031 8 8 8h56c4.417969 0 8-3.582031 8-8s-3.582031-8-8-8zm0 0"/><path d="m380.960938 193.140625c-.980469.386719-1.875.957031-2.640626 1.679687-1.464843 1.53125-2.292968 3.5625-2.320312 5.679688 0 4.417969 3.582031 8 8 8s8-3.582031 8-8c-.03125-2.117188-.859375-4.148438-2.320312-5.679688-2.300782-2.269531-5.742188-2.933593-8.71875-1.679687zm0 0"/><path d="m224 48.5h56c4.417969 0 8-3.582031 8-8s-3.582031-8-8-8h-56c-4.417969 0-8 3.582031-8 8s3.582031 8 8 8zm0 0"/><path d="m194.320312 46.179688c2.289063 2.289062 5.742188 2.957031 8.71875 1.679687.96875-.40625 1.863282-.976563 2.640626-1.679687 2.289062-2.289063 2.957031-5.742188 1.679687-8.71875-.40625-.96875-.972656-1.863282-1.679687-2.640626-.394532-.363281-.820313-.683593-1.28125-.960937-.40625-.316406-.867188-.558594-1.359376-.71875-.476562-.242187-.996093-.40625-1.527343-.480469-1.53125-.328125-3.125-.160156-4.550781.480469-.980469.386719-1.875.957031-2.640626 1.679687-.707031.777344-1.273437 1.671876-1.679687 2.640626-.855469 1.9375-.855469 4.140624 0 6.078124.40625.96875.976563 1.863282 1.679687 2.640626zm0 0"/></g></svg>
				   