			 <svg height="512" class="maincat_icon" viewBox="0 0 512 512" width="512" xmlns="http://www.w3.org/2000/svg"><g><g fill="#e2dee8"><g><path d="m255 232a96 96 0 0 1 -96-96 94.828 94.828 0 0 1 1.34-16h47.33c-.44 5.2-.67 10.55-.67 16 0 53.02 21.49 96 48 96z"/><path d="m351 136a96 96 0 0 1 -96 96c26.51 0 48-42.98 48-96 0-5.45-.23-10.8-.67-16h47.33a94.828 94.828 0 0 1 1.34 16z"/><path d="m495 120v352h-480v-352h32v320q104-32 208 0 104-32 208 0v-320z"/><path d="m255 232a96 96 0 0 1 -96-96 96.349 96.349 0 0 1 8.52-39.6h43.74a171.313 171.313 0 0 0 -3.59 23.6c-.44 5.2-.67 10.55-.67 16 0 53.02 21.49 96 48 96z"/><path d="m351 136a96 96 0 0 1 -96 96c26.51 0 48-42.98 48-96 0-5.45-.23-10.8-.67-16a171.313 171.313 0 0 0 -3.59-23.6h43.74a96.349 96.349 0 0 1 8.52 39.6z"/></g><path d="m255 232a96 96 0 0 1 -96-96 96.349 96.349 0 0 1 8.52-39.6 96.024 96.024 0 0 1 87.48-56.4c-19.45 0-36.2 23.14-43.74 56.4a171.313 171.313 0 0 0 -3.59 23.6c-.44 5.2-.67 10.55-.67 16 0 53.02 21.49 96 48 96z"/><path d="m351 136a96 96 0 0 1 -96 96c26.51 0 48-42.98 48-96 0-5.45-.23-10.8-.67-16a171.313 171.313 0 0 0 -3.59-23.6c-7.54-33.26-24.29-56.4-43.74-56.4a96.024 96.024 0 0 1 87.48 56.4 96.349 96.349 0 0 1 8.52 39.6z"/></g><g fill="#3c2666"><path d="m496 112h-24a8.011 8.011 0 0 0 -5.65-7.65 359.615 359.615 0 0 0 -118-16.14 103.968 103.968 0 0 0 -184.7 0 359.845 359.845 0 0 0 -118 16.14 8.011 8.011 0 0 0 -5.65 7.65h-24a8 8 0 0 0 -8 8v352a8 8 0 0 0 8 8h480a8 8 0 0 0 8-8v-352a8 8 0 0 0 -8-8zm-152.37 16h-31.8c-.95-23.87-6.08-46.16-14.73-63.46a95.9 95.9 0 0 0 -4.99-8.79 88.179 88.179 0 0 1 51.52 72.25zm0 16a88.179 88.179 0 0 1 -51.52 72.25 95.9 95.9 0 0 0 4.99-8.79c8.65-17.3 13.78-39.59 14.73-63.46zm-79.63-93.98c6.8 3.36 13.37 10.84 18.79 21.68 7.58 15.16 12.12 34.92 13.03 56.3h-31.82zm0 93.98h31.82c-.91 21.38-5.45 41.14-13.03 56.3-5.42 10.84-11.99 18.32-18.79 21.68zm0 95.7a104.025 104.025 0 0 0 90.98-135.64 343.827 343.827 0 0 1 101.02 13.9v311.37a354.141 354.141 0 0 0 -192 .01zm-16-189.68v77.98h-31.82c.91-21.38 5.45-41.14 13.03-56.3 5.42-10.84 11.99-18.32 18.79-21.68zm0 93.98v77.98c-6.8-3.36-13.37-10.84-18.79-21.68-7.58-15.16-12.12-34.92-13.03-56.3zm-28.11-88.25a95.9 95.9 0 0 0 -4.99 8.79c-8.65 17.3-13.78 39.59-14.73 63.46h-31.8a88.179 88.179 0 0 1 51.52-72.25zm-19.72 88.25c.95 23.87 6.08 46.16 14.73 63.46a95.9 95.9 0 0 0 4.99 8.79 88.179 88.179 0 0 1 -51.52-72.25zm-144.17-26.04a343.848 343.848 0 0 1 101.03-13.9 104 104 0 0 0 90.97 135.64v189.64a354.141 354.141 0 0 0 -192-.01zm432 346.04h-464v-336h16v312a8 8 0 0 0 10.35 7.65c67.45-20.76 135.85-20.76 203.3 0a8.01 8.01 0 0 0 4.7 0c67.45-20.76 135.85-20.76 203.3 0a8.209 8.209 0 0 0 2.35.35 7.994 7.994 0 0 0 8-8v-312h16z"/><path d="m96 288h112a8 8 0 0 0 0-16h-112a8 8 0 0 0 0 16z"/><path d="m80 320h144a8 8 0 0 0 0-16h-144a8 8 0 0 0 0 16z"/><path d="m208 336h-112a8 8 0 0 0 0 16h112a8 8 0 0 0 0-16z"/><path d="m184 368h-64a8 8 0 0 0 0 16h64a8 8 0 0 0 0-16z"/><path d="m120 256h64a8 8 0 0 0 0-16h-64a8 8 0 0 0 0 16z"/><path d="m296 280a8 8 0 0 0 8 8h112a8 8 0 0 0 0-16h-112a8 8 0 0 0 -8 8z"/><path d="m280 312a8 8 0 0 0 8 8h144a8 8 0 0 0 0-16h-144a8 8 0 0 0 -8 8z"/><path d="m416 336h-112a8 8 0 0 0 0 16h112a8 8 0 0 0 0-16z"/><path d="m392 368h-64a8 8 0 0 0 0 16h64a8 8 0 0 0 0-16z"/><path d="m320 248a8 8 0 0 0 8 8h64a8 8 0 0 0 0-16h-64a8 8 0 0 0 -8 8z"/></g></g></svg>
			